<?xml version="1.0" standalone="no"?>
<!DOCTYPE svg PUBLIC "-//W3C//DTD SVG 20010904//EN"
 "http://www.w3.org/TR/2001/REC-SVG-20010904/DTD/svg10.dtd">
<svg version="1.0" xmlns="http://www.w3.org/2000/svg"
 width="2816.000000pt" height="1536.000000pt" viewBox="0 0 2816.000000 1536.000000"
 preserveAspectRatio="xMidYMid meet">

<g transform="translate(0.000000,1536.000000) scale(0.100000,-0.100000)"
fill="#000000" stroke="none">
<path d="M17202 12196 c-87 -28 -111 -57 -292 -356 -62 -102 -114 -186 -115
-188 -2 -2 -102 -12 -222 -23 -331 -28 -367 -37 -426 -97 -71 -72 -85 -158
-42 -250 29 -63 43 -82 213 -290 131 -159 133 -163 123 -195 -6 -17 -31 -126
-57 -242 -55 -249 -59 -320 -24 -385 59 -106 168 -135 315 -85 65 23 260 103
411 170 37 16 19 25 249 -117 204 -126 238 -144 311 -163 81 -21 144 -6 198
49 71 71 78 133 51 481 -8 105 -15 195 -15 201 0 6 79 80 175 164 184 161 257
243 276 313 15 58 6 120 -25 167 -51 77 -115 104 -445 187 l-189 47 -53 131
c-98 240 -168 388 -201 423 -56 59 -141 81 -216 58z m118 -111 c37 -19 66 -75
175 -339 45 -110 88 -212 94 -226 11 -23 34 -31 244 -84 272 -69 325 -87 367
-126 38 -36 40 -86 5 -145 -22 -39 -170 -176 -337 -315 -106 -87 -105 -83 -85
-350 26 -336 21 -391 -36 -418 -58 -28 -119 0 -405 180 -96 60 -189 112 -207
115 -24 4 -76 -14 -234 -82 -248 -106 -302 -125 -358 -125 -50 0 -87 29 -99
76 -8 32 9 134 60 354 20 85 39 180 42 211 l6 55 -68 85 c-281 344 -300 373
-291 445 5 52 20 72 66 91 31 13 280 42 499 58 l93 7 36 57 c20 31 81 130 136
221 55 91 112 180 126 199 50 67 112 87 171 56z"/>
<path d="M16793 11286 c-38 -17 -53 -43 -53 -91 0 -51 36 -85 90 -85 56 0 90
34 90 89 0 73 -62 115 -127 87z"/>
<path d="M17509 11215 c-14 -8 -32 -28 -39 -44 -36 -89 68 -170 143 -111 51
40 43 126 -14 155 -35 18 -56 18 -90 0z"/>
<path d="M16992 11072 c-26 -74 33 -180 120 -217 89 -37 192 5 238 96 23 43
26 102 8 116 -7 6 -52 13 -100 17 -49 3 -126 9 -172 12 l-83 7 -11 -31z m243
-94 c51 -23 14 -78 -53 -78 -67 0 -123 50 -86 77 22 16 105 17 139 1z"/>
<path d="M11571 11079 c-343 -44 -617 -304 -691 -654 -7 -33 -13 -432 -16
-1148 l-5 -1099 -23 -37 c-13 -20 -35 -59 -49 -87 -25 -49 -29 -52 -104 -78
-190 -67 -319 -149 -458 -291 -148 -150 -247 -323 -311 -543 -58 -203 -90
-535 -78 -833 l7 -176 -32 -11 c-57 -20 -167 -100 -229 -167 -238 -254 -279
-641 -101 -942 50 -83 151 -187 244 -248 l82 -55 7 -172 c10 -256 35 -520 57
-606 56 -221 219 -407 412 -471 l64 -22 6 -67 c10 -98 35 -160 87 -212 60 -60
97 -70 267 -70 160 0 224 14 278 62 55 47 77 85 110 183 l31 90 2963 0 2964 0
17 -61 c25 -93 67 -169 113 -209 65 -56 121 -67 305 -63 149 3 159 4 202 30
77 45 104 93 129 231 l16 89 52 18 c93 32 157 74 233 150 108 107 174 243 199
410 13 83 41 468 42 580 0 47 3 93 7 102 4 9 41 39 83 66 339 221 446 659 253
1032 -65 125 -176 237 -302 304 l-65 33 -2 284 c-3 375 -28 569 -100 786 -124
372 -366 623 -740 767 -70 27 -70 28 -133 124 l-63 97 1 814 c0 447 -2 841 -6
875 l-6 61 -54 0 -54 0 0 -813 0 -814 -47 39 c-27 21 -65 51 -85 66 l-38 28 0
573 c0 536 -8 957 -18 928 -5 -16 -59 -16 -65 1 -3 6 -7 -15 -8 -48 -2 -33 -4
-69 -5 -80 -1 -11 -2 -311 -3 -668 l-1 -647 -72 36 c-289 146 -699 188 -1022
104 -258 -66 -462 -184 -637 -367 l-84 -88 -150 7 c-82 4 -484 7 -893 6 l-742
-2 -57 85 c-72 105 -236 271 -328 331 -85 56 -205 117 -300 153 -259 98 -612
112 -916 35 -137 -35 -305 -108 -409 -179 l-45 -30 -3 827 c-2 574 1 845 8
885 32 166 144 299 302 358 l63 24 1975 2 c2709 2 2503 1 2493 16 -11 17 -11
51 0 58 24 17 -410 20 -2373 17 l-2115 -3 -65 -22 c-133 -45 -240 -140 -309
-272 -73 -141 -71 -103 -71 -1081 l0 -875 -84 -84 -84 -84 -5 69 c-8 140 -7
1831 2 1909 21 175 80 294 211 425 89 89 151 129 270 172 l65 23 2265 5 c1246
3 2257 6 2248 8 -22 3 -47 40 -50 74 -2 25 -3 25 -122 32 -176 9 -4230 5
-4305 -5z m762 -2354 c55 -8 146 -31 204 -50 429 -143 714 -477 858 -1000 67
-247 97 -422 142 -835 24 -223 27 -295 28 -575 0 -259 -4 -345 -19 -452 -10
-73 -16 -138 -13 -146 3 -7 33 -28 68 -47 89 -46 214 -174 261 -265 75 -145
113 -309 124 -535 11 -221 -21 -346 -112 -436 -68 -68 -134 -97 -234 -102
-109 -5 -177 18 -254 89 -72 66 -117 159 -165 345 -45 174 -110 364 -154 449
-39 75 -146 183 -212 214 -45 21 -52 22 -75 9 -17 -9 -26 -24 -28 -45 -3 -27
3 -35 61 -77 135 -95 210 -250 252 -520 25 -156 18 -398 -14 -478 -45 -116
-149 -197 -279 -220 -175 -30 -329 45 -420 203 -17 30 -52 117 -77 193 -64
194 -95 249 -155 281 -14 7 -70 18 -125 25 -343 40 -625 134 -794 264 -274
211 -423 628 -496 1385 -18 185 -21 622 -5 796 20 222 60 433 112 595 83 258
272 525 482 681 87 65 254 153 361 192 195 69 466 94 678 62z m4132 -183 c265
-57 468 -165 651 -347 357 -355 459 -843 368 -1770 -45 -466 -124 -830 -230
-1063 -77 -168 -216 -333 -347 -411 -81 -48 -202 -87 -347 -111 -68 -12 -140
-28 -158 -37 -52 -25 -86 -75 -152 -226 -69 -159 -132 -261 -190 -307 -96 -76
-217 -98 -338 -61 -181 55 -268 239 -241 507 27 270 88 423 219 548 67 64 76
95 36 121 -38 25 -74 9 -151 -69 -76 -76 -126 -162 -164 -277 -18 -56 -26 -67
-54 -77 -42 -15 -52 -32 -107 -194 -92 -269 -176 -351 -362 -350 -137 0 -239
65 -295 189 -83 180 -61 568 43 780 51 102 150 206 245 258 41 22 95 61 121
88 26 26 54 47 64 47 9 0 168 -31 353 -69 185 -38 369 -75 409 -81 71 -12 76
-14 135 -74 237 -236 771 -288 1052 -102 57 38 80 73 71 110 -10 42 -37 40
-133 -8 -128 -66 -220 -88 -373 -88 -233 0 -420 64 -537 184 -137 140 -110
363 54 444 34 17 58 19 247 16 187 -3 216 -1 276 17 84 26 170 97 170 140 0
60 -48 67 -120 17 -90 -62 -127 -67 -380 -52 -137 9 -162 5 -260 -37 -11 -5
-22 7 -40 45 -38 80 -79 102 -245 138 -232 50 -812 160 -842 160 -38 0 -112
-39 -136 -71 -10 -14 -21 -44 -24 -67 l-6 -42 -44 0 c-62 0 -111 -23 -119 -55
-12 -47 14 -60 119 -61 140 -1 213 -42 263 -149 44 -93 28 -196 -43 -275 -62
-70 -125 -95 -238 -95 -78 0 -98 4 -152 29 -127 58 -204 177 -211 326 -10 209
75 380 309 625 143 149 125 107 175 390 31 180 94 435 136 554 34 97 117 268
169 351 189 294 488 496 820 555 118 20 411 13 534 -13z m-1609 -468 l151 -6
-54 -96 c-122 -221 -213 -523 -284 -942 l-23 -135 -90 -95 c-119 -126 -176
-196 -221 -269 l-37 -60 -37 15 c-184 77 -401 250 -557 446 -55 68 -62 82 -68
135 -40 348 -121 692 -215 911 -22 50 -39 93 -38 93 1 1 169 5 372 8 408 7
868 5 1101 -5z m-4188 -326 c-119 -424 -141 -1094 -54 -1680 7 -49 11 -88 8
-88 -2 0 -27 20 -55 45 -64 55 -158 106 -257 137 -63 19 -97 23 -207 23 l-133
0 -6 44 c-11 75 3 537 21 651 68 450 272 757 615 927 47 24 88 43 91 43 3 0
-7 -46 -23 -102z m7102 -66 c186 -148 309 -349 376 -609 43 -169 55 -292 61
-598 l5 -290 -133 0 c-198 0 -312 -37 -453 -145 -36 -28 -66 -47 -66 -43 0 4
9 73 20 153 52 382 74 865 51 1116 -15 159 -51 340 -91 458 -16 50 -30 96 -30
104 0 22 170 -73 260 -146z m-3877 -1115 c102 -82 233 -158 320 -187 30 -9 37
-16 31 -29 -62 -148 -59 -364 8 -495 14 -27 17 -41 9 -49 -6 -6 -57 -11 -123
-11 -86 0 -132 6 -193 23 -80 22 -235 92 -254 114 -6 8 -6 67 0 167 9 143 1
416 -17 610 l-6 65 83 -81 c46 -45 110 -102 142 -127z m1505 -233 c238 -47
444 -90 458 -96 29 -14 64 -75 64 -114 0 -14 -8 -38 -19 -52 -56 -80 -77 -167
-62 -258 5 -33 8 -60 7 -61 -2 -2 -226 43 -691 137 l-50 10 0 98 c0 84 -4 105
-26 152 -36 77 -82 126 -150 160 -32 16 -61 34 -64 40 -12 19 4 56 27 67 27
12 -17 19 506 -83z m-5136 -290 c167 -40 320 -172 404 -349 64 -133 66 -154
73 -740 6 -522 7 -531 30 -588 31 -78 91 -151 164 -198 80 -52 137 -68 282
-79 119 -9 665 -27 970 -33 l160 -2 54 -42 c84 -64 147 -85 278 -91 138 -6
219 15 318 83 l65 45 1458 1 c1771 2 2385 15 2575 54 132 27 239 114 300 242
l32 68 6 530 c6 569 8 590 62 722 73 180 240 333 413 377 79 20 232 21 308 1
268 -70 456 -326 456 -619 -1 -264 -119 -466 -339 -580 l-91 -47 0 -47 c0 -94
-20 -480 -31 -591 -32 -336 -150 -512 -394 -588 -58 -17 -196 -18 -3730 -18
-3533 0 -3672 1 -3730 18 -191 59 -326 215 -369 428 -15 73 -39 368 -54 658
l-7 144 -80 40 c-60 31 -100 61 -161 121 -131 131 -178 252 -178 461 -1 97 4
134 22 195 99 322 412 503 734 424z m3608 -336 c92 -32 100 -33 255 -32 122 0
170 4 200 16 36 14 43 14 60 1 41 -30 132 -71 188 -83 31 -7 57 -15 57 -16 0
-2 -18 -31 -40 -65 -21 -33 -42 -70 -45 -80 -6 -18 -20 -19 -293 -19 l-287 0
-65 88 c-40 53 -89 105 -126 132 -33 25 -73 54 -88 65 -23 17 -26 25 -20 52
l6 32 52 -29 c28 -16 94 -44 146 -62z m402 -408 l210 0 -7 -27 c-30 -111 -37
-168 -42 -328 -4 -145 -2 -197 11 -260 54 -260 233 -405 484 -393 79 4 99 9
165 41 89 44 166 121 214 215 l32 62 6 -57 c16 -138 64 -258 131 -333 l36 -40
-853 0 -854 0 55 32 c114 66 199 182 235 323 10 41 15 107 15 208 1 210 -20
359 -69 499 -20 57 -18 73 7 63 7 -3 108 -5 224 -5z m-3306 -226 l33 -41 -42
-31 c-23 -16 -52 -40 -64 -51 l-23 -22 0 143 0 143 31 -50 c18 -27 46 -69 65
-91z m6339 -14 c0 -71 -1 -130 -2 -130 -1 0 -14 12 -30 28 -15 15 -41 37 -57
49 l-28 23 30 37 c16 21 41 57 56 81 14 23 27 42 29 42 1 0 2 -58 2 -130z
m-6143 -174 c180 -125 437 -212 738 -251 69 -9 135 -18 148 -21 32 -7 57 -53
98 -184 20 -63 49 -144 65 -179 16 -35 29 -64 29 -65 0 -7 -913 23 -1044 34
-85 7 -122 15 -162 35 -96 47 -150 133 -165 261 -15 140 18 252 101 334 39 39
100 79 122 80 4 0 35 -20 70 -44z m6040 -37 c27 -27 61 -75 76 -107 24 -51 27
-68 27 -162 -1 -131 -20 -191 -81 -259 -62 -69 -113 -90 -247 -101 -147 -12
-563 -30 -700 -30 l-108 0 39 48 c51 60 97 146 162 297 28 66 59 128 70 139
13 13 52 24 127 37 192 33 341 89 471 178 55 37 58 38 86 24 16 -8 51 -37 78
-64z m-3891 -583 c24 -21 67 -49 94 -62 l50 -24 -149 0 c-137 0 -148 1 -143
18 11 31 36 126 42 155 l6 29 28 -39 c16 -22 48 -56 72 -77z m-2368 -968 c-11
-18 -34 -43 -53 -55 -31 -21 -44 -23 -182 -23 l-150 0 -29 29 c-16 16 -29 35
-28 43 0 7 5 3 11 -9 10 -21 12 -21 39 -7 19 9 29 11 29 4 0 -13 62 -10 71 3
3 4 23 8 45 9 21 0 46 4 54 9 9 4 53 9 98 10 45 2 88 7 95 11 20 13 20 10 0
-24z m6350 13 c5 -1 5 -5 2 -11 -3 -5 1 -10 10 -10 9 0 13 5 10 10 -4 6 14 10
46 10 29 0 50 -3 46 -6 -3 -3 -23 -6 -44 -6 -28 0 -33 -2 -18 -8 11 -4 26 -5
33 -3 6 3 12 0 12 -6 0 -6 -7 -11 -15 -11 -9 0 -12 -6 -8 -17 5 -12 3 -14 -8
-8 -12 8 -12 6 0 -8 12 -15 10 -17 -15 -17 -38 0 -89 32 -107 67 -15 28 -15
28 17 26 17 -1 35 -2 39 -2z"/>
<path d="M12925 7831 c-45 -11 -69 -26 -103 -65 -66 -76 -63 -167 6 -174 28
-3 34 1 49 35 28 62 52 83 94 83 32 0 43 -6 70 -40 24 -29 40 -40 60 -40 67 0
77 75 18 136 -53 54 -130 80 -194 65z"/>
<path d="M11779 7647 c-57 -30 -100 -91 -106 -151 -6 -54 7 -76 47 -76 30 0
51 20 70 68 13 34 54 62 91 62 12 0 40 -19 66 -45 45 -46 68 -54 95 -32 50 38
1 138 -87 178 -56 26 -122 24 -176 -4z"/>
<path d="M12571 7478 c-29 -68 -52 -83 -127 -83 -63 0 -66 1 -104 43 -43 46
-68 52 -93 24 -26 -28 -21 -67 13 -106 95 -108 290 -104 371 7 60 83 55 157
-12 157 -25 0 -32 -6 -48 -42z"/>
<path d="M12595 6691 c-59 -26 -109 -87 -219 -263 -54 -87 -101 -158 -105
-158 -3 0 -26 7 -51 16 -62 22 -191 22 -332 0 -98 -15 -127 -17 -183 -7 -87
15 -143 43 -206 99 -45 40 -54 44 -77 36 -15 -5 -31 -21 -36 -37 -13 -35 9
-66 91 -128 118 -90 240 -109 485 -74 92 12 130 14 175 6 80 -15 140 -47 173
-93 42 -58 53 -100 48 -188 -4 -62 -10 -87 -33 -125 -74 -127 -227 -221 -452
-277 -117 -30 -363 -32 -462 -4 -69 19 -155 59 -217 101 -46 31 -80 29 -107
-7 -19 -26 -19 -28 -3 -53 40 -60 220 -149 356 -176 85 -16 295 -16 390 0 41
7 123 29 182 48 l108 35 62 -40 c119 -77 184 -104 252 -105 112 -1 167 40 283
213 93 139 426 675 444 715 35 76 19 185 -34 244 -31 33 -250 178 -322 212
-72 35 -149 38 -210 10z m191 -126 c97 -50 234 -145 258 -178 29 -39 25 -95
-9 -154 -16 -26 -102 -165 -193 -307 -322 -509 -324 -512 -400 -510 -48 1
-124 33 -172 73 l-25 20 35 28 c63 49 131 127 158 184 l27 56 60 -1 c67 -1
114 20 148 66 28 38 35 133 13 176 -36 69 -133 109 -204 84 -29 -10 -31 -9
-66 44 -43 64 -49 43 76 249 136 221 164 237 294 170z m-202 -566 c52 -41 23
-132 -43 -132 -17 0 -36 4 -41 9 -11 11 -16 116 -6 132 11 19 61 14 90 -9z"/>
<path d="M12630 6459 c-18 -33 -4 -65 35 -84 33 -15 38 -15 61 -1 32 22 30 49
-7 80 -37 32 -74 34 -89 5z"/>
<path d="M12844 6316 c-12 -47 40 -95 90 -82 21 5 26 13 26 35 0 59 -102 100
-116 47z"/>
<path d="M12536 6309 c-19 -27 -6 -59 34 -82 35 -21 64 -22 80 -3 21 26 7 59
-35 83 -50 28 -60 28 -79 2z"/>
<path d="M12748 6199 c-40 -23 -9 -84 55 -108 23 -9 31 -7 47 9 28 28 25 45
-12 73 -42 31 -68 39 -90 26z"/>
<path d="M15245 7667 c-76 -76 -61 -193 31 -237 48 -24 73 -25 118 -6 96 40
112 173 30 246 -30 26 -43 30 -90 30 -50 0 -60 -4 -89 -33z"/>
<path d="M16412 7530 c-75 -17 -126 -105 -103 -179 37 -124 210 -142 262 -28
24 54 24 81 -1 132 -29 61 -91 90 -158 75z"/>
<path d="M15608 7415 c-60 -33 -76 -175 -31 -276 42 -95 111 -148 216 -168
103 -19 203 13 270 88 115 127 123 281 16 318 -19 7 -74 12 -124 13 -55 0
-119 8 -165 20 -88 23 -145 25 -182 5z m408 -210 c13 -8 24 -22 24 -29 0 -24
-50 -75 -93 -98 -73 -37 -215 -21 -233 27 -14 35 49 90 125 112 56 16 144 10
177 -12z"/>
<path d="M15627 6112 c-24 -27 -21 -58 9 -81 44 -35 119 -23 124 19 5 36 -2
50 -30 65 -39 20 -83 19 -103 -3z"/>
<path d="M10545 3260 c-16 -7 -17 -9 -3 -9 9 -1 20 4 23 9 7 11 7 11 -20 0z"/>
<path d="M10640 3239 c0 -5 19 -9 42 -9 23 0 39 2 36 5 -10 10 -78 13 -78 4z"/>
</g>
</svg>
